<svg fill="none" xmlns="http://www.w3.org/2000/svg" viewBox="0 0 18 11"><path d="M17.8 4.57c-.939-1.377-2.2-2.482-3.783-3.317A10.607 10.607 0 0 0 9 0C7.239 0 5.566.417 3.983 1.253 2.399 2.088 1.138 3.193.2 4.569.067 4.78 0 4.987 0 5.191c0 .204.067.412.2.622.938 1.376 2.199 2.481 3.783 3.316A10.606 10.606 0 0 0 9 10.382c1.761 0 3.434-.416 5.017-1.248 1.584-.833 2.845-1.94 3.782-3.321.134-.21.201-.418.201-.622 0-.204-.067-.412-.2-.622ZM6.844 2.103c.6-.537 1.318-.806 2.155-.806.134 0 .248.042.341.126.094.084.141.186.141.306s-.047.223-.14.307A.493.493 0 0 1 9 2.163c-.576 0-1.068.183-1.476.55-.409.366-.613.808-.613 1.324 0 .12-.047.223-.14.307a.493.493 0 0 1-.342.126.493.493 0 0 1-.342-.126.397.397 0 0 1-.14-.307c0-.75.299-1.395.898-1.933Zm6.52 6.03A8.995 8.995 0 0 1 9 9.227a8.992 8.992 0 0 1-4.364-1.095 9.94 9.94 0 0 1-3.35-2.942C2.304 3.773 3.579 2.713 5.113 2.01A3.635 3.635 0 0 0 4.5 4.037c0 1.112.44 2.062 1.32 2.853.881.79 1.941 1.185 3.18 1.185s2.298-.395 3.18-1.185c.88-.79 1.32-1.741 1.32-2.853 0-.727-.204-1.403-.613-2.027 1.534.703 2.81 1.763 3.827 3.18a9.938 9.938 0 0 1-3.35 2.943Z" fill="#b1b1b1"/></svg>